<svg width="277" height="555" viewBox="0 0 277 555" fill="none" xmlns="http://www.w3.org/2000/svg">
<rect x="36.9204" y="307.841" width="3.11664" height="24.8776" transform="rotate(-38.1561 36.9204 307.841)" fill="#BCABFE" fill-opacity="0.2"/>
<rect x="71.8691" y="247.373" width="3.11664" height="19.991" transform="rotate(-75 71.8691 247.373)" fill="#BCABFE" fill-opacity="0.2"/>
<rect x="137.531" y="208.856" width="3.11664" height="23.2684" transform="rotate(-172.568 137.531 208.856)" fill="#BCABFE" fill-opacity="0.2"/>
<rect x="223.29" y="161.958" width="3.11664" height="23.2684" transform="rotate(150 223.29 161.958)" fill="#BCABFE" fill-opacity="0.2"/>
<rect x="158.232" y="133.259" width="3.11664" height="23.2684" transform="rotate(166.424 158.232 133.259)" fill="#BCABFE" fill-opacity="0.2"/>
<rect x="200.773" y="84.0783" width="3.11664" height="23.2684" transform="rotate(179.816 200.773 84.0783)" fill="#BCABFE" fill-opacity="0.2"/>
<rect x="105.793" y="66.1824" width="3.11664" height="18.0999" transform="rotate(-113.528 105.793 66.1824)" fill="#BCABFE" fill-opacity="0.2"/>
<rect x="77.8628" y="145" width="3.11664" height="28.1671" transform="rotate(-113.528 77.8628 145)" fill="#BCABFE"/>
<rect x="-15.7559" y="402.123" width="3.11664" height="28.1671" transform="rotate(-113.528 -15.7559 402.123)" fill="#BCABFE"/>
<rect x="194.037" y="10.7103" width="3.11664" height="26.594" transform="rotate(113.749 194.037 10.7103)" fill="#BCABFE" fill-opacity="0.2"/>
<rect x="276.628" y="32.5266" width="3.11664" height="26.594" transform="rotate(113.749 276.628 32.5266)" fill="#BCABFE" fill-opacity="0.2"/>
<rect x="273.479" y="91.9407" width="3.11664" height="26.594" transform="rotate(25.7173 273.479 91.9407)" fill="#BCABFE" fill-opacity="0.2"/>
<rect x="84.291" y="382.123" width="3.11664" height="16.1814" transform="rotate(-37.4163 84.291 382.123)" fill="#BCABFE" fill-opacity="0.2"/>
<rect x="125.766" y="459.028" width="3.11664" height="16.1814" transform="rotate(-143.875 125.766 459.028)" fill="#BCABFE" fill-opacity="0.2"/>
<rect x="101.188" y="531.924" width="3.11664" height="23.583" transform="rotate(-157.133 101.188 531.924)" fill="#BCABFE" fill-opacity="0.2"/>
<rect x="32.6216" y="554.327" width="3.11664" height="23.583" transform="rotate(-157.133 32.6216 554.327)" fill="#BCABFE" fill-opacity="0.2"/>
<rect x="117.016" y="310.441" width="3.11664" height="16.1814" transform="rotate(-37.4163 117.016 310.441)" fill="#BCABFE" fill-opacity="0.2"/>
<rect x="51.5659" y="455.364" width="3.11664" height="16.1814" transform="rotate(-37.4163 51.5659 455.364)" fill="#BCABFE" fill-opacity="0.2"/>
</svg>
