<svg width="277" height="555" viewBox="0 0 277 555" fill="none" xmlns="http://www.w3.org/2000/svg">
<rect width="3.11664" height="24.8776" transform="matrix(-0.78633 -0.617806 -0.617806 0.78633 239.708 307.841)" fill="#BCABFE" fill-opacity="0.2"/>
<rect width="3.11664" height="19.991" transform="matrix(-0.258819 -0.965926 -0.965926 0.258819 204.759 247.373)" fill="#BCABFE" fill-opacity="0.2"/>
<rect width="3.11664" height="23.2684" transform="matrix(0.991598 -0.129354 -0.129354 -0.991598 139.097 208.856)" fill="#BCABFE" fill-opacity="0.2"/>
<rect width="3.11664" height="23.2684" transform="matrix(0.866025 0.5 0.5 -0.866025 53.3389 161.958)" fill="#BCABFE" fill-opacity="0.2"/>
<rect width="3.11664" height="23.2684" transform="matrix(0.972061 0.234727 0.234727 -0.972061 118.396 133.259)" fill="#BCABFE" fill-opacity="0.2"/>
<rect width="3.11664" height="23.2684" transform="matrix(0.999995 0.00321768 0.00321768 -0.999995 75.8555 84.0783)" fill="#BCABFE" fill-opacity="0.2"/>
<rect width="3.11664" height="18.0999" transform="matrix(0.399198 -0.916865 -0.916865 -0.399198 170.835 66.1824)" fill="#BCABFE" fill-opacity="0.2"/>
<rect width="3.11664" height="28.1671" transform="matrix(0.399198 -0.916865 -0.916865 -0.399198 198.766 145)" fill="#BCABFE"/>
<rect width="3.11664" height="28.1671" transform="matrix(0.399198 -0.916865 -0.916865 -0.399198 292.384 402.123)" fill="#BCABFE"/>
<rect width="3.11664" height="26.594" transform="matrix(0.402733 0.915318 0.915318 -0.402733 82.5913 10.7103)" fill="#BCABFE" fill-opacity="0.2"/>
<rect width="3.11664" height="26.594" transform="matrix(0.402733 0.915318 0.915318 -0.402733 0 32.5266)" fill="#BCABFE" fill-opacity="0.2"/>
<rect width="3.11664" height="26.594" transform="matrix(-0.900946 0.433931 0.433931 0.900946 3.14941 91.9407)" fill="#BCABFE" fill-opacity="0.2"/>
<rect width="3.11664" height="16.1814" transform="matrix(-0.794241 -0.607602 -0.607602 0.794241 192.337 382.123)" fill="#BCABFE" fill-opacity="0.2"/>
<rect width="3.11664" height="16.1814" transform="matrix(0.807731 -0.589551 -0.589551 -0.807731 150.863 459.028)" fill="#BCABFE" fill-opacity="0.2"/>
<rect width="3.11664" height="23.583" transform="matrix(0.921411 -0.38859 -0.38859 -0.921411 175.441 531.924)" fill="#BCABFE" fill-opacity="0.2"/>
<rect width="3.11664" height="23.583" transform="matrix(0.921411 -0.38859 -0.38859 -0.921411 244.007 554.327)" fill="#BCABFE" fill-opacity="0.2"/>
<rect width="3.11664" height="16.1814" transform="matrix(-0.794241 -0.607602 -0.607602 0.794241 159.613 310.441)" fill="#BCABFE" fill-opacity="0.2"/>
<rect width="3.11664" height="16.1814" transform="matrix(-0.794241 -0.607602 -0.607602 0.794241 225.062 455.364)" fill="#BCABFE" fill-opacity="0.2"/>
</svg>
