<svg width="294" height="555" viewBox="0 0 294 555" fill="none" xmlns="http://www.w3.org/2000/svg">
<rect x="53.9204" y="307.841" width="3.11664" height="24.8776" transform="rotate(-38.1561 53.9204 307.841)" fill="#BCABFE" fill-opacity="0.2"/>
<rect x="88.8691" y="247.373" width="3.11664" height="19.991" transform="rotate(-75 88.8691 247.373)" fill="#BCABFE" fill-opacity="0.2"/>
<rect x="154.531" y="208.856" width="3.11664" height="23.2684" transform="rotate(-172.568 154.531 208.856)" fill="#BCABFE" fill-opacity="0.2"/>
<rect x="240.29" y="161.958" width="3.11664" height="23.2684" transform="rotate(150 240.29 161.958)" fill="#BCABFE" fill-opacity="0.2"/>
<rect x="175.232" y="133.259" width="3.11664" height="23.2684" transform="rotate(166.424 175.232 133.259)" fill="#BCABFE" fill-opacity="0.2"/>
<rect x="217.773" y="84.0783" width="3.11664" height="23.2684" transform="rotate(179.816 217.773 84.0783)" fill="#BCABFE" fill-opacity="0.2"/>
<rect x="122.793" y="66.1824" width="3.11664" height="18.0999" transform="rotate(-113.528 122.793 66.1824)" fill="#BCABFE" fill-opacity="0.2"/>
<rect x="94.8628" y="145" width="3.11664" height="28.1671" transform="rotate(-113.528 94.8628 145)" fill="#BCABFE"/>
<rect x="1.24414" y="402.123" width="3.11664" height="28.1671" transform="rotate(-113.528 1.24414 402.123)" fill="#BCABFE"/>
<rect x="211.037" y="10.7103" width="3.11664" height="26.594" transform="rotate(113.749 211.037 10.7103)" fill="#BCABFE" fill-opacity="0.2"/>
<rect x="293.628" y="32.5266" width="3.11664" height="26.594" transform="rotate(113.749 293.628 32.5266)" fill="#BCABFE" fill-opacity="0.2"/>
<rect x="290.479" y="91.9407" width="3.11664" height="26.594" transform="rotate(25.7173 290.479 91.9407)" fill="#BCABFE" fill-opacity="0.2"/>
<rect x="101.291" y="382.123" width="3.11664" height="16.1814" transform="rotate(-37.4163 101.291 382.123)" fill="#BCABFE" fill-opacity="0.2"/>
<rect x="142.766" y="459.028" width="3.11664" height="16.1814" transform="rotate(-143.875 142.766 459.028)" fill="#BCABFE" fill-opacity="0.2"/>
<rect x="118.188" y="531.924" width="3.11664" height="23.583" transform="rotate(-157.133 118.188 531.924)" fill="#BCABFE" fill-opacity="0.2"/>
<rect x="49.6216" y="554.327" width="3.11664" height="23.583" transform="rotate(-157.133 49.6216 554.327)" fill="#BCABFE" fill-opacity="0.2"/>
<rect x="134.016" y="310.441" width="3.11664" height="16.1814" transform="rotate(-37.4163 134.016 310.441)" fill="#BCABFE" fill-opacity="0.2"/>
<rect x="68.5659" y="455.364" width="3.11664" height="16.1814" transform="rotate(-37.4163 68.5659 455.364)" fill="#BCABFE" fill-opacity="0.2"/>
</svg>
