<svg width="177" height="552" viewBox="0 0 177 552" fill="none" xmlns="http://www.w3.org/2000/svg">
<rect x="122.879" y="18.2929" width="3.15889" height="28.549" transform="rotate(-113.528 122.879 18.2929)" fill="#BCABFE"/>
<rect x="72.3364" y="136.751" width="3.15889" height="28.549" transform="rotate(-113.528 72.3364 136.751)" fill="#BCABFE"/>
<rect x="153.887" y="423.069" width="3.15889" height="28.549" transform="rotate(-135.666 153.887 423.069)" fill="#BCABFE"/>
<rect x="176.894" y="93.272" width="3.15889" height="26.9546" transform="rotate(142.4 176.894 93.272)" fill="#BCABFE" fill-opacity="0.2"/>
<rect x="167.417" y="345.984" width="3.15889" height="26.9546" transform="rotate(142.4 167.417 345.984)" fill="#BCABFE" fill-opacity="0.2"/>
<rect x="97.6021" y="286.721" width="3.15889" height="26.9546" transform="rotate(67.7486 97.6021 286.721)" fill="#BCABFE" fill-opacity="0.2"/>
<rect x="104.057" y="368.321" width="3.15889" height="26.9546" transform="rotate(56.94 104.057 368.321)" fill="#BCABFE" fill-opacity="0.2"/>
<rect x="101.593" y="443.086" width="3.15889" height="26.9546" transform="rotate(1.08078 101.593 443.086)" fill="#BCABFE" fill-opacity="0.2"/>
<rect x="160.365" y="469.813" width="3.15889" height="21.6119" transform="rotate(-26.937 160.365 469.813)" fill="#BCABFE" fill-opacity="0.2"/>
<rect x="138.992" y="530.026" width="3.15889" height="21.6119" transform="rotate(-1.26742 138.992 530.026)" fill="#BCABFE" fill-opacity="0.2"/>
<rect y="86.3795" width="3.15889" height="21.6119" transform="rotate(-35.3539 0 86.3795)" fill="#BCABFE" fill-opacity="0.2"/>
<rect x="25" y="1.82782" width="3.15889" height="21.6119" transform="rotate(-35.3539 25 1.82782)" fill="#BCABFE" fill-opacity="0.2"/>
<rect x="156.294" y="209" width="3.15889" height="26.9546" transform="rotate(77.293 156.294 209)" fill="#BCABFE" fill-opacity="0.2"/>
</svg>
