<svg width="251" height="472" viewBox="0 0 251 472" fill="none" xmlns="http://www.w3.org/2000/svg">
<rect width="2.65345" height="21.1803" transform="matrix(-0.78633 -0.617806 -0.617806 0.78633 204.902 262.146)" fill="#BCABFE" fill-opacity="0.2"/>
<rect width="2.65345" height="17.02" transform="matrix(-0.258819 -0.965926 -0.965926 0.258819 175.147 210.665)" fill="#BCABFE" fill-opacity="0.2"/>
<rect width="2.65345" height="19.8103" transform="matrix(0.991598 -0.129354 -0.129354 -0.991598 119.244 177.872)" fill="#BCABFE" fill-opacity="0.2"/>
<rect width="2.65345" height="19.8103" transform="matrix(0.866025 0.5 0.5 -0.866025 46.231 137.944)" fill="#BCABFE" fill-opacity="0.2"/>
<rect width="2.65345" height="19.8103" transform="matrix(0.972061 0.234727 0.234727 -0.972061 101.62 113.51)" fill="#BCABFE" fill-opacity="0.2"/>
<rect width="2.65345" height="19.8103" transform="matrix(0.999995 0.00321768 0.00321768 -0.999995 65.4014 71.6382)" fill="#BCABFE" fill-opacity="0.2"/>
<rect width="2.65345" height="19.8103" transform="matrix(0.999995 0.00321768 0.00321768 -0.999995 192 95.5828)" fill="#BCABFE" fill-opacity="0.2"/>
<rect width="2.65345" height="15.41" transform="matrix(0.399198 -0.916865 -0.916865 -0.399198 146.266 56.4021)" fill="#BCABFE" fill-opacity="0.2"/>
<rect width="2.65345" height="23.9809" transform="matrix(0.399198 -0.916865 -0.916865 -0.399198 170.045 123.506)" fill="#BCABFE"/>
<rect width="2.65345" height="23.9809" transform="matrix(0.399198 -0.916865 -0.916865 -0.399198 249.75 342.416)" fill="#BCABFE"/>
<rect width="2.65345" height="22.6417" transform="matrix(0.402733 0.915318 0.915318 -0.402733 71.1362 9.17407)" fill="#BCABFE" fill-opacity="0.2"/>
<rect width="2.65345" height="22.6417" transform="matrix(0.402733 0.915318 0.915318 -0.402733 197.735 33.1187)" fill="#BCABFE" fill-opacity="0.2"/>
<rect width="2.65345" height="22.6417" transform="matrix(0.402733 0.915318 0.915318 -0.402733 0.819336 27.748)" fill="#BCABFE" fill-opacity="0.2"/>
<rect width="2.65345" height="22.6417" transform="matrix(-0.900946 0.433931 0.433931 0.900946 3.50098 78.332)" fill="#BCABFE" fill-opacity="0.2"/>
<rect width="2.65345" height="13.7766" transform="matrix(-0.794241 -0.607602 -0.607602 0.794241 164.572 325.389)" fill="#BCABFE" fill-opacity="0.2"/>
<rect width="2.65345" height="13.7766" transform="matrix(0.807731 -0.589551 -0.589551 -0.807731 129.261 390.864)" fill="#BCABFE" fill-opacity="0.2"/>
<rect width="2.65345" height="20.0782" transform="matrix(0.921411 -0.38859 -0.38859 -0.921411 150.187 452.927)" fill="#BCABFE" fill-opacity="0.2"/>
<rect width="2.65345" height="20.0782" transform="matrix(0.921411 -0.38859 -0.38859 -0.921411 208.562 472)" fill="#BCABFE" fill-opacity="0.2"/>
<rect width="2.65345" height="13.7766" transform="matrix(-0.794241 -0.607602 -0.607602 0.794241 136.711 264.359)" fill="#BCABFE" fill-opacity="0.2"/>
<rect width="2.65345" height="13.7766" transform="matrix(-0.794241 -0.607602 -0.607602 0.794241 192.434 387.745)" fill="#BCABFE" fill-opacity="0.2"/>
</svg>
